<?xml version="1.0" encoding="UTF-8"?>
<svg width="600" height="400" viewBox="0 0 600 400" fill="none" xmlns="http://www.w3.org/2000/svg">
  <!-- Background -->
  <rect width="600" height="400" rx="10" fill="#F5F7FA"/>
  
  <!-- Factory Building -->
  <rect x="50" y="150" width="200" height="200" fill="#E9ECEF"/>
  <rect x="80" y="200" width="40" height="60" fill="#FFFFFF"/>
  <rect x="150" y="200" width="40" height="60" fill="#FFFFFF"/>
  <rect x="80" y="280" width="40" height="70" fill="#FFFFFF"/>
  <rect x="150" y="280" width="40" height="70" fill="#FFFFFF"/>
  <rect x="40" y="150" width="220" height="20" fill="#4A4A4A"/>
  <rect x="120" y="100" width="60" height="50" fill="#E9ECEF"/>
  <rect x="140" y="70" width="20" height="30" fill="#E9ECEF"/>
  
  <!-- Gears -->
  <circle cx="400" cy="150" r="60" fill="#0056B3" opacity="0.8"/>
  <circle cx="400" cy="150" r="45" fill="#F5F7FA"/>
  <circle cx="400" cy="150" r="10" fill="#0056B3"/>
  
  <circle cx="480" cy="200" r="40" fill="#FF6B00" opacity="0.8"/>
  <circle cx="480" cy="200" r="30" fill="#F5F7FA"/>
  <circle cx="480" cy="200" r="7" fill="#FF6B00"/>
  
  <circle cx="350" cy="220" r="30" fill="#00C6A2" opacity="0.8"/>
  <circle cx="350" cy="220" r="22" fill="#F5F7FA"/>
  <circle cx="350" cy="220" r="5" fill="#00C6A2"/>
  
  <!-- Gear teeth -->
  <!-- For blue gear -->
  <rect x="395" y="80" width="10" height="20" fill="#0056B3"/>
  <rect x="395" y="200" width="10" height="20" fill="#0056B3"/>
  <rect x="330" y="145" width="20" height="10" fill="#0056B3"/>
  <rect x="450" y="145" width="20" height="10" fill="#0056B3"/>
  
  <!-- For orange gear -->
  <rect x="475" y="150" width="10" height="15" fill="#FF6B00"/>
  <rect x="475" y="235" width="10" height="15" fill="#FF6B00"/>
  <rect x="435" y="195" width="15" height="10" fill="#FF6B00"/>
  <rect x="510" y="195" width="15" height="10" fill="#FF6B00"/>
  
  <!-- For green gear -->
  <rect x="345" y="180" width="10" height="15" fill="#00C6A2"/>
  <rect x="345" y="245" width="10" height="15" fill="#00C6A2"/>
  <rect x="310" y="215" width="15" height="10" fill="#00C6A2"/>
  <rect x="375" y="215" width="15" height="10" fill="#00C6A2"/>
  
  <!-- Dashboard Elements -->
  <rect x="330" y="280" width="220" height="100" rx="5" fill="#FFFFFF" stroke="#E9ECEF" stroke-width="2"/>
  
  <!-- Chart -->
  <path d="M350 350 L370 330 L390 340 L410 310 L430 320 L450 300 L470 330 L490 310 L510 320" stroke="#0056B3" stroke-width="2" fill="none"/>
  
  <!-- Gauge -->
  <circle cx="430" cy="310" r="20" stroke="#4A4A4A" stroke-width="2" fill="none"/>
  <path d="M430 310 L430 295" stroke="#DC3545" stroke-width="2"/>
  
  <!-- IoT Sensors -->
  <circle cx="100" y="230" r="5" fill="#00C6A2"/>
  <circle cx="170" y="230" r="5" fill="#00C6A2"/>
  <circle cx="100" y="310" r="5" fill="#00C6A2"/>
  <circle cx="170" y="310" r="5" fill="#00C6A2"/>
  
  <!-- Connection Lines -->
  <path d="M105 230 C150 230, 200 100, 330 150" stroke="#00C6A2" stroke-width="1" stroke-dasharray="4 2"/>
  <path d="M175 230 C220 230, 250 120, 330 150" stroke="#00C6A2" stroke-width="1" stroke-dasharray="4 2"/>
  <path d="M105 310 C150 310, 200 250, 330 220" stroke="#00C6A2" stroke-width="1" stroke-dasharray="4 2"/>
  <path d="M175 310 C220 310, 250 270, 330 220" stroke="#00C6A2" stroke-width="1" stroke-dasharray="4 2"/>
</svg>
